<?xml version="1.0" encoding="utf-8"?>
<!-- Generator: Adobe Illustrator 24.2.3, SVG Export Plug-In . SVG Version: 6.00 Build 0)  -->
<svg version="1.1" id="Capa_1" xmlns="http://www.w3.org/2000/svg" xmlns:xlink="http://www.w3.org/1999/xlink" x="0px" y="0px"
	 viewBox="0 0 911 431" style="enable-background:new 0 0 911 431;" xml:space="preserve">
<style type="text/css">
	.st0{fill:#95E2FF;}
	.st1{fill:#68CDF5;}
</style>
<g id="Grupo_1873" transform="translate(-6885 7297.996)">
	<path id="Sustracción_73" class="st0" d="M7796-6867h-911v-431h610c0.5,2.8,1.3,5.6,2.2,8.2c2.2,6.5,5.4,12.7,9.4,18.4
		c5.4,7.8,12.5,14.3,20.7,19.2c5,2.9,10.3,5.3,15.9,6.9c6.6,2,13.4,3.2,20.3,3.6c3.3,0.2,6.6,0.3,9.9,0.3c10.3,0,20.6-1.1,30.7-3.1
		c9.6-1.9,18.4-4.4,26.4-6.8c1.9-0.6,3.7-1.1,5.6-1.7c7.1-2.2,13.8-4.2,20.4-5.7c6.2-1.6,12.6-2.4,19-2.5c6.4,0,12.7,1.1,18.7,3.4
		c12.1,4.7,22,12.2,31.6,19.4c7.6,5.7,14.7,11,22.8,15.1c4.1,2.1,8.4,3.7,12.8,4.9c4.8,1.2,9.7,1.9,14.7,1.9c6.8-0.1,13.5-1,20-2.9
		V-6867z"/>
	<path id="Sustracción_72" class="st1" d="M7779.1-7137.5c-8.5,0-15-1.7-20.5-5.2c-5-3.3-8.6-7.7-12.8-12.9l0,0
		c-3.6-4.7-7.6-9.1-11.9-13.2c-5.8-5.3-12.3-9.7-19.4-13.1c-6.2-3.1-13-4.8-20-4.8c-11,0-21.9,3.9-34.6,8.4
		c-2.3,0.8-4.6,1.6-7.1,2.5c-8.5,3-17.3,5.5-26.1,7.5c-10.7,2.3-21.6,3.4-32.5,3.4c-3.3,0-6.6-0.1-9.9-0.3
		c-4.6-0.3-9.1-0.8-13.6-1.7c-3.9-0.8-7.8-1.9-11.5-3.3c-6.6-2.4-12.7-5.9-18.1-10.4c-5.1-4.2-9.6-8.9-13.6-14.1
		c-4-5.2-7.7-10.6-11.5-16.3c-5.5-8.2-11.2-16.7-18.2-24.4c-3.6-4-7.6-7.7-11.8-11c-4.6-3.6-9.6-6.8-14.9-9.4
		c-4-1.9-8.2-3.4-12.5-4.3c-4.4-0.9-9-1.3-13.5-1.3c-6.3,0-12.6,0.7-18.8,1.9c-6.8,1.3-13.4,3-20,5.1c-13.7,4.2-27.8,9.8-42.6,15.6
		h0l-3.4,1.3l-0.3,0.1c-15.7,6.2-31.1,12.1-46.3,16.6c-7.6,2.3-15.2,4.1-23,5.5c-7.4,1.3-14.9,2-22.5,2.1c-2.9,0-5.7-0.1-8.5-0.3
		c-8.1-0.6-16.1-2.4-23.8-5.4c-6.5-2.5-12.6-6-18-10.4c-9.1-7.3-16.5-16.9-22-28.8c-2.2-4.8-4.1-9.8-5.5-14.8
		c-1.2-4.2-2.2-8.5-3-12.8c-0.7-4.1-1.2-8.2-1.4-12.3h308.1c0.5,2.8,1.2,5.6,2.2,8.2c2.2,6.5,5.4,12.7,9.4,18.4
		c5.4,7.8,12.5,14.3,20.7,19.2c5,2.9,10.3,5.3,15.9,6.9c6.6,2,13.4,3.2,20.3,3.6c3.3,0.2,6.6,0.3,9.9,0.3c10.3,0,20.6-1.1,30.7-3.1
		c9.6-1.9,18.4-4.4,26.5-6.8c1.9-0.6,3.9-1.2,5.6-1.7l0.1,0c7.1-2.2,13.8-4.2,20.3-5.7c6.2-1.6,12.6-2.4,19-2.5
		c6.4,0,12.7,1.1,18.7,3.4c12.1,4.7,22,12.2,31.6,19.4l0,0c7.5,5.7,14.7,11,22.7,15.1c4.1,2.1,8.4,3.7,12.8,4.9
		c4.8,1.2,9.7,1.9,14.7,1.9c7-0.1,14-1.1,20.7-3.1v80.4C7790.2-7138.1,7784.7-7137.6,7779.1-7137.5z"/>
</g>
</svg>
