<svg xmlns="http://www.w3.org/2000/svg" width="638.484" height="638.484" viewBox="0 0 638.484 638.484">
  <g id="Grupo_1872" data-name="Grupo 1872" transform="translate(-6684.989 8148.67)">
    <path id="Unión_5" data-name="Unión 5" d="M225.384,676.154a318.743,318.743,0,0,1,0-450.77c124.476-124.476,326.293-124.476,450.77,0a318.742,318.742,0,0,1-450.77,450.77Z" transform="translate(6553.462 -8280.197)" fill="#66cdf2" stroke="rgba(0,0,0,0)" stroke-miterlimit="10" stroke-width="1"/>
    <ellipse id="Elipse_405" data-name="Elipse 405" cx="238.961" cy="238.96" rx="238.961" ry="238.96" transform="matrix(0.021, -1, 1, 0.021, 6760.194, -7595.654)" fill="#3dc0ee"/>
    <circle id="Elipse_406" data-name="Elipse 406" cx="195.792" cy="195.792" r="195.792" transform="translate(6727.34 -7829.428) rotate(-45)" fill="#00ace9"/>
    <g id="Grupo_1789" data-name="Grupo 1789" transform="translate(6872.624 -7971.591)">
      <path id="Trazado_985" data-name="Trazado 985" d="M177.882,284.145q-.483-5.82-.487-11.766a139.858,139.858,0,0,1,18.673-70.035" transform="translate(-177.395 -131.949)" fill="none" stroke="#fff" stroke-miterlimit="10" stroke-width="0.75"/>
      <path id="Trazado_986" data-name="Trazado 986" d="M398.692,322.642A140.5,140.5,0,0,1,209,322.617" transform="translate(-163.361 -78.545)" fill="none" stroke="#fff" stroke-miterlimit="10" stroke-width="0.75"/>
      <path id="Trazado_987" data-name="Trazado 987" d="M240.744,162.314A141.551,141.551,0,0,1,361.22,173.027" transform="translate(-149.267 -153.595)" fill="none" stroke="#fff" stroke-miterlimit="10" stroke-width="0.75"/>
      <ellipse id="Elipse_396" data-name="Elipse 396" cx="3.769" cy="3.769" rx="3.769" ry="3.769" transform="translate(41.885 240.255)" fill="#fff"/>
      <path id="Trazado_988" data-name="Trazado 988" d="M262.512,387.131l4.25-22.964-3.77.277,1.259-6.592,3.765-.279.3-1.57a16.991,16.991,0,0,1,4.9-9.844,13.576,13.576,0,0,1,8.316-3.414,11.769,11.769,0,0,1,4.605.374l-1.495,6.967a6.4,6.4,0,0,0-2.811-.329c-2.751.2-4.487,2.777-5.025,5.736l-.3,1.454,5.8-.429-1.256,6.592-5.743.425L271.068,386.5Zm37.864-2.793c.059-1.734.24-3.714.42-5.815l-.181.014c-2.692,5.03-6.4,6.913-9.812,7.164-5.265.388-8.855-3.4-8.855-9.48,0-9.838,6.524-20.81,20.938-21.874a34.086,34.086,0,0,1,9.691.713l-3.107,15.492a71.339,71.339,0,0,0-1.139,13.2Zm2.511-23.255a13.112,13.112,0,0,0-2.331-.066c-5.565.41-9.632,7.5-9.632,12.93,0,2.862,1.138,4.745,3.528,4.569,2.573-.192,5.743-3.346,7.061-10.6Zm12.374,22.157L318.91,363.3c.657-3.746,1.138-7,1.493-9.591l7.419-.547-.537,4.749.118-.01a12.92,12.92,0,0,1,9.993-6.1c4.664-.344,6.7,2.427,6.937,4.972a13.18,13.18,0,0,1,10.05-6.224c4.547-.336,7.18,2.328,7.18,7.278a32.214,32.214,0,0,1-.539,5.048L357.852,380.1l-8.313.614,2.93-16.135a19.183,19.183,0,0,0,.42-3.607c0-2.027-.9-3.391-2.933-3.239-2.869.211-5.682,4.292-6.82,10.219l-2.452,13.415-8.316.614,2.993-16.257a18.111,18.111,0,0,0,.419-3.37c0-1.965-.661-3.528-2.752-3.373-2.933.218-5.983,4.554-7.06,10.357l-2.393,13.291Zm50.292-3.711,5.564-29.562,8.615-.635-5.561,29.562Zm6.761-37.459a5.356,5.356,0,0,1,4.966-5.258,3.73,3.73,0,0,1,4.306,3.915,5.208,5.208,0,0,1-5.084,5.207A3.658,3.658,0,0,1,372.314,342.07ZM382,378.315l8.133-42.928,8.615-.635-8.134,42.928Zm16.445-1.212,5.56-29.563,8.615-.635-5.561,29.563Zm6.758-37.462a5.353,5.353,0,0,1,4.965-5.255,3.729,3.729,0,0,1,4.306,3.915,5.207,5.207,0,0,1-5.083,5.206A3.659,3.659,0,0,1,405.206,339.641Zm28.831,34.834c.059-1.73.24-3.713.417-5.814l-.178.014c-2.692,5.03-6.4,6.913-9.812,7.164-5.265.388-8.855-3.4-8.855-9.482,0-9.838,6.524-20.81,20.938-21.875a34.079,34.079,0,0,1,9.691.716l-3.11,15.49a71.59,71.59,0,0,0-1.136,13.2Zm2.511-23.255a13.266,13.266,0,0,0-2.331-.066c-5.565.41-9.632,7.506-9.632,12.931,0,2.862,1.135,4.745,3.528,4.569,2.573-.189,5.743-3.346,7.06-10.6ZM201.192,350.6l-3.288,17.47a43.972,43.972,0,0,0-.767,6.348l-4.384.325.232-2.635-.066,0a6.818,6.818,0,0,1-5.315,3.375c-2.757.2-5.05-1.814-5.05-5.757,0-5.629,4.087-11.1,10.232-11.551a6.512,6.512,0,0,1,2.227.2l1.395-7.424Zm-6.876,11.639a3.051,3.051,0,0,0-1.895-.425c-2.856.211-4.884,3.672-4.884,6.787,0,1.954.862,2.982,2.258,2.881,1.362-.1,3.057-1.682,3.691-4.81Zm20.339,9.959a14.7,14.7,0,0,1-6.048,1.707c-4.647.341-7.042-2.1-7.042-6.3,0-4.936,3.588-10.335,9.471-10.768,3.287-.243,5.646,1.4,5.646,4.417,0,4.14-4.02,5.928-10.531,6.244a3.007,3.007,0,0,0,.5,1.619,3.5,3.5,0,0,0,3.122,1.027,10.782,10.782,0,0,0,4.552-1.36Zm-4.219-11.845a4.432,4.432,0,0,0-3.819,3.629c3.72-.243,5.58-.908,5.58-2.367C212.2,360.792,211.531,360.276,210.435,360.357ZM224.5,372.4l4.517-23.851,4.783-.354-4.517,23.851Zm19.769-1.458c.033-.962.133-2.062.233-3.229l-.1.007c-1.495,2.79-3.555,3.838-5.447,3.978-2.924.217-4.918-1.89-4.918-5.269,0-5.466,3.622-11.559,11.629-12.15a18.994,18.994,0,0,1,5.38.4l-1.727,8.608a39.686,39.686,0,0,0-.633,7.334Zm1.4-12.921a7.337,7.337,0,0,0-1.3-.038c-3.09.228-5.35,4.172-5.35,7.185,0,1.588.634,2.637,1.961,2.537,1.43-.1,3.19-1.857,3.922-5.886Zm-45.914-22.375a24.807,24.807,0,0,1-10.227,2.884c-7.868.581-11.916-3.545-11.916-10.66,0-8.348,6.071-17.478,16.017-18.211,5.564-.41,9.557,2.374,9.557,7.471,0,7-6.8,10.026-17.818,10.56a5.085,5.085,0,0,0,.845,2.738c1.067,1.321,2.921,1.913,5.284,1.739a18.318,18.318,0,0,0,7.7-2.3Zm-7.135-20.033c-3.766.277-5.9,3.519-6.463,6.134,6.295-.407,9.44-1.534,9.44-4C195.592,316.35,194.467,315.478,192.616,315.615ZM205.479,336.8l7.643-40.34,8.092-.6-7.642,40.34Zm41.978-42.873-3.262,15.871.114-.007A12,12,0,0,1,252.8,305.3c5.731-.425,8.316,4.033,8.316,8.908,0,8.907-5.845,19.535-18.208,20.444-6.521.482-9.779-2.077-9.779-6.951a25.383,25.383,0,0,1,.615-5.03l5.565-28.144Zm-5.678,28.652a16.187,16.187,0,0,0-.279,3.047,2.615,2.615,0,0,0,3.09,2.8c4.664-.344,8.036-7.093,8.036-11.912,0-2.631-1.123-4.621-3.6-4.439-2.924.217-5.788,3.4-6.744,8.228Zm22.082,9.912,5.227-27.779,8.092-.6-5.226,27.782Zm6.351-35.2a5.029,5.029,0,0,1,4.664-4.937,3.506,3.506,0,0,1,4.048,3.681,4.889,4.889,0,0,1-4.778,4.887A3.435,3.435,0,0,1,270.212,297.286Zm32.089,30.8a24.823,24.823,0,0,1-10.227,2.885c-7.867.579-11.918-3.547-11.918-10.661,0-8.348,6.071-17.477,16.02-18.211,5.562-.41,9.554,2.375,9.554,7.474,0,7-6.8,10.023-17.818,10.557a5.085,5.085,0,0,0,.845,2.738c1.067,1.321,2.921,1.913,5.282,1.739a18.278,18.278,0,0,0,7.7-2.3Zm-7.136-20.033c-3.766.279-5.9,3.519-6.465,6.136,6.3-.406,9.442-1.535,9.442-4C298.142,308.784,297.019,307.914,295.164,308.049Zm12.863,21.181,3.483-18.743c.679-3.523,1.126-6.582,1.464-9.017l7.191-.531-.559,4.58.111-.009a12.62,12.62,0,0,1,9.668-5.864c4.5-.332,7.025,2.224,7.025,6.931a34.346,34.346,0,0,1-.453,4.68l-3.032,16.134-8.092.6L327.7,312.6a18.815,18.815,0,0,0,.28-3.1c0-1.9-.674-3.2-2.7-3.048-2.643.194-5.734,3.73-6.858,9.861l-2.3,12.326Zm55.183-5.642a24.777,24.777,0,0,1-10.227,2.884c-7.869.58-11.918-3.545-11.918-10.658,0-8.349,6.069-17.478,16.02-18.212,5.562-.41,9.554,2.374,9.554,7.473,0,7-6.8,10.024-17.816,10.559a5.06,5.06,0,0,0,.845,2.738c1.064,1.321,2.918,1.915,5.284,1.739a18.34,18.34,0,0,0,7.7-2.3Zm-7.138-20.032c-3.763.277-5.9,3.519-6.461,6.134,6.293-.409,9.44-1.535,9.44-4C359.052,304.291,357.929,303.418,356.073,303.556Zm13.88,13.876a17.086,17.086,0,0,0,7.194,1.376c2.3-.169,3.483-1.378,3.483-2.723s-.9-2.228-3.43-3.274c-3.2-1.336-5.842-3.434-5.842-6.853,0-5.658,5-9.779,12.082-10.3a14.6,14.6,0,0,1,7.083.875l-1.912,5.857a12.326,12.326,0,0,0-5.508-.827c-2.134.159-3.6,1.219-3.6,2.674,0,1.119,1.123,1.99,3.373,2.888,2.976,1.292,6.126,3.246,6.126,7.057,0,6.274-5.339,10.027-12.589,10.562-3.486.259-6.8-.394-8.43-1.506Zm38.492-30.678-1.461,7.779,5.845-.43-1.178,6.193-5.848.432-1.854,9.435a21.142,21.142,0,0,0-.448,3.509c0,1.342.56,2.254,2.3,2.127a15.18,15.18,0,0,0,2.251-.28l-.956,6.4a16.623,16.623,0,0,1-4.778.967c-4.832.358-7.139-1.941-7.139-5.357a27.04,27.04,0,0,1,.565-5.138l2.134-11.083-3.484.258,1.125-6.189,3.539-.261,1.125-5.853Zm22.365,33.418c.056-1.629.222-3.49.391-5.464l-.169.013c-2.527,4.723-6.013,6.494-9.216,6.732-4.944.362-8.319-3.2-8.319-8.911,0-9.243,6.127-19.554,19.672-20.554a32.084,32.084,0,0,1,9.1.671l-2.921,14.556a67.308,67.308,0,0,0-1.067,12.4Zm2.36-21.855a12.316,12.316,0,0,0-2.194-.059c-5.226.384-9.047,7.051-9.047,12.15,0,2.689,1.07,4.458,3.315,4.292,2.416-.178,5.4-3.142,6.63-9.955ZM444.8,319.14l3.089-16.533c.788-4.2,1.125-8.822,1.405-11.2l7.025-.518c-.166,1.861-.336,3.726-.505,5.64l.169-.012c1.911-3.785,5-6.588,8.768-6.865a13.667,13.667,0,0,1,1.516-.056l-1.573,7.959a9.512,9.512,0,0,0-1.3.039c-5.168.381-7.585,5.152-8.6,10.6l-1.91,10.339Zm-232.156-86.6a4.811,4.811,0,0,1-4.823-4.874V174.84a5.235,5.235,0,0,1,1.451-3.671,5.341,5.341,0,0,1,3.6-1.757,4.755,4.755,0,0,1,4.072,1.7,1.345,1.345,0,0,1,.134.192,2.469,2.469,0,0,1,.169.241,1.333,1.333,0,0,1,.258.374l.012.023,16.674,32.19V172.9a5.228,5.228,0,0,1,1.454-3.671,5.168,5.168,0,0,1,3.557-1.754,4.88,4.88,0,0,1,5.243,4.858v52.824a1.229,1.229,0,0,1-.043.328,3.368,3.368,0,0,1-.045.478,1.792,1.792,0,0,1-.019.188,5.249,5.249,0,0,1-2.637,3.685,4.987,4.987,0,0,1-3.88.589,4.71,4.71,0,0,1-3.058-2.345l-16.689-32.218V227.1a5.51,5.51,0,0,1-5.014,5.424C212.919,232.532,212.78,232.538,212.643,232.538Zm.635-60.571q-.106,0-.221.009a2.8,2.8,0,0,0-1.906.949,2.663,2.663,0,0,0-.761,1.916v52.824a2.151,2.151,0,0,0,.695,1.687,2.25,2.25,0,0,0,1.783.608,2.746,2.746,0,0,0,1.866-.944,2.7,2.7,0,0,0,.767-1.916V190.58a1.285,1.285,0,0,1,2.426-.591l19.1,36.875a2.112,2.112,0,0,0,1.427,1.064,2.442,2.442,0,0,0,1.954-.321,2.7,2.7,0,0,0,1.388-1.873,1.37,1.37,0,0,1,.019-.179c0-.049.019-.3.026-.347.007-.071.019-.137.032-.2V172.328a2.311,2.311,0,0,0-2.484-2.295,2.63,2.63,0,0,0-1.85.928,2.684,2.684,0,0,0-.78,1.934v36.516a1.285,1.285,0,0,1-2.426.592l-19-36.683a1.293,1.293,0,0,1-.253-.374,1.186,1.186,0,0,1-.257-.336A2.053,2.053,0,0,0,213.278,171.967Zm28.593,53.185h0Zm26.052,3.268a16.938,16.938,0,0,1-16.977-17.164v-7.847a20.017,20.017,0,0,1,18.28-19.629l.282-.022h0a16.956,16.956,0,0,1,18.469,17.109v7.847a20,20,0,0,1-18.28,19.629l-.282.022Q268.659,228.419,267.923,228.42Zm1.776-42.1-.282.022a17.445,17.445,0,0,0-15.9,17.065v7.847a14.39,14.39,0,0,0,15.71,14.546l.282-.022a17.439,17.439,0,0,0,15.9-17.065v-7.847a14.388,14.388,0,0,0-15.71-14.546Zm-1.161,34.4a9.88,9.88,0,0,1-9.912-10.029v-7.845a11.567,11.567,0,0,1,10.6-11.382l.282-.022a9.96,9.96,0,0,1,10.791,9.994v7.847a11.647,11.647,0,0,1-10.6,11.382l-.282.022C269.119,220.706,268.827,220.717,268.538,220.717Zm1.835-26.739c-.221,0-.446.009-.674.025l-.282.022a9,9,0,0,0-8.221,8.819v7.845a7.325,7.325,0,0,0,8.029,7.432l.282-.022a9.082,9.082,0,0,0,8.221-8.819v-7.847a7.379,7.379,0,0,0-7.354-7.455Zm35.919,31.614a15.667,15.667,0,0,1-7.246-1.7,13.4,13.4,0,0,1-5.769-5.668,4.688,4.688,0,0,1,.308-5.012,5.779,5.779,0,0,1,4.557-2.612,5.125,5.125,0,0,1,5.155,2.7,3.838,3.838,0,0,0,4.126,2,5.431,5.431,0,0,0,3.84-1.749,4,4,0,0,0,1.1-3.327,3.274,3.274,0,0,0-1.544-2.326,5.242,5.242,0,0,0-3.275-.794,13.362,13.362,0,0,1-11.256-4.394,11.471,11.471,0,0,1-2.453-11.577,13.9,13.9,0,0,1,5.188-7.213,16.551,16.551,0,0,1,8.686-3.187c5.746-.439,10.019,1.561,12.8,5.89a4.585,4.585,0,0,1-.033,5.2,5.764,5.764,0,0,1-4.653,2.761,5.223,5.223,0,0,1-4.934-2.377,2.9,2.9,0,0,0-2.869-1.238,4.3,4.3,0,0,0-2.4.872,3.079,3.079,0,0,0-1.207,1.8,2.225,2.225,0,0,0,.635,2.27,2.973,2.973,0,0,0,2.575.929h0c5.07-.371,9.2,1.142,12.367,4.494a12.515,12.515,0,0,1,2.978,12.433,14.865,14.865,0,0,1-5.639,8.143,17.968,17.968,0,0,1-9.639,3.627C307.222,225.576,306.754,225.592,306.292,225.592Zm-7.627-12.437c-.107,0-.22.006-.332.013a3.219,3.219,0,0,0-2.606,1.474,2.133,2.133,0,0,0-.18,2.377,10.721,10.721,0,0,0,4.686,4.6,13.427,13.427,0,0,0,7.191,1.368,15.506,15.506,0,0,0,8.361-3.122,12.175,12.175,0,0,0,4.7-6.746,9.959,9.959,0,0,0-2.368-10.02c-2.64-2.794-6.023-4-10.3-3.688a5.52,5.52,0,0,1-4.6-1.688,4.77,4.77,0,0,1-1.313-4.627,5.61,5.61,0,0,1,2.153-3.288,6.8,6.8,0,0,1,3.691-1.389,5.455,5.455,0,0,1,5.262,2.351,2.678,2.678,0,0,0,2.621,1.258,3.171,3.171,0,0,0,2.66-1.557,2.043,2.043,0,0,0,.052-2.449c-2.267-3.529-5.658-5.07-10.326-4.729a14.122,14.122,0,0,0-7.467,2.7,11.226,11.226,0,0,0-4.254,5.877,8.931,8.931,0,0,0,1.9,9.131,10.8,10.8,0,0,0,9.2,3.544,7.772,7.772,0,0,1,4.843,1.226,5.834,5.834,0,0,1,2.658,4.1,6.524,6.524,0,0,1-1.747,5.417,7.874,7.874,0,0,1-5.344,2.567c-3.168.234-5.461-.908-6.768-3.3A2.518,2.518,0,0,0,298.665,213.155Zm-86.813,73.87a4.639,4.639,0,0,1-3.47-1.476A5.152,5.152,0,0,1,207,281.942V248.3a5.5,5.5,0,0,1,6.023-5.4,4.567,4.567,0,0,1,3.1,1.674,19.01,19.01,0,0,1,9.151-3.132l.289-.02a16.37,16.37,0,0,1,13.284,4.671,18.967,18.967,0,0,1,13.207-6.627l.29-.02a16.959,16.959,0,0,1,18.466,17.107v21.073a5.583,5.583,0,0,1-5.05,5.427,4.815,4.815,0,0,1-5.2-4.861V257.122a7.322,7.322,0,0,0-8.024-7.43l-.289.02a9,9,0,0,0-8.214,8.817V279.6a5.516,5.516,0,0,1-5.048,5.428,4.7,4.7,0,0,1-3.684-1.249,4.826,4.826,0,0,1-1.522-3.613V259.1a7.327,7.327,0,0,0-8.024-7.431l-.289.022a9,9,0,0,0-8.216,8.82v21.073a5.5,5.5,0,0,1-5.281,5.443Zm.543-41.586a2.945,2.945,0,0,0-2.827,2.862v33.641a2.568,2.568,0,0,0,.687,1.847,2.063,2.063,0,0,0,1.656.664,2.638,2.638,0,0,0,1.936-.882,2.672,2.672,0,0,0,.83-1.99V260.509a11.57,11.57,0,0,1,10.6-11.383l.289-.022a9.894,9.894,0,0,1,10.784,9.994V280.17a2.278,2.278,0,0,0,.716,1.746,2.163,2.163,0,0,0,1.727.553,2.724,2.724,0,0,0,1.861-.905,2.769,2.769,0,0,0,.809-1.96v-20.99a11.56,11.56,0,0,1,10.593-11.464l.29-.022a9.894,9.894,0,0,1,10.784,9.994V278.2a2.159,2.159,0,0,0,.7,1.69,2.112,2.112,0,0,0,1.741.608,3.018,3.018,0,0,0,2.671-2.863V256.556a14.385,14.385,0,0,0-15.707-14.544h0l-.289.022a16.375,16.375,0,0,0-12.034,6.437l-.012-.007a1.4,1.4,0,0,1-.244.323l-.012.01a.152.152,0,0,1-.02.023,1.428,1.428,0,0,1-.884.469,1.316,1.316,0,0,1-1.123-.433,13.813,13.813,0,0,0-12.163-4.869l-.289.02a16.6,16.6,0,0,0-8.738,3.282l-.25.182a1.284,1.284,0,0,1-1.958-.569,2.054,2.054,0,0,0-1.8-1.447A3.156,3.156,0,0,0,212.395,245.439Zm40.044-4.709h0Zm40.207,40.287a16.935,16.935,0,0,1-16.972-17.162V242.741a5.324,5.324,0,0,1,1.44-3.653,5.434,5.434,0,0,1,3.614-1.734,4.761,4.761,0,0,1,5.2,4.82v21.115a7.327,7.327,0,0,0,8.027,7.429l.286-.022a9.083,9.083,0,0,0,8.217-8.817V240.764a5.428,5.428,0,0,1,5.011-5.383h0a4.812,4.812,0,0,1,5.24,4.817v34.339a5.5,5.5,0,0,1-5.048,5.428A4.4,4.4,0,0,1,303.29,278a18.952,18.952,0,0,1-8.861,2.943l-.287.022C293.637,281,293.137,281.017,292.646,281.017Zm-11.507-41.108c-.074,0-.144,0-.221.009a2.866,2.866,0,0,0-1.921.923,2.755,2.755,0,0,0-.752,1.9v21.113A14.386,14.386,0,0,0,293.953,278.4l.286-.022a16.592,16.592,0,0,0,8.855-3.365,1.281,1.281,0,0,1,2.017.722,1.925,1.925,0,0,0,2.355,1.668,2.69,2.69,0,0,0,1.866-.905,2.771,2.771,0,0,0,.8-1.96V240.2a2.248,2.248,0,0,0-2.481-2.254,2.717,2.717,0,0,0-1.863.9,2.764,2.764,0,0,0-.767,1.916v21.115a11.651,11.651,0,0,1-10.6,11.38l-.287.022a9.895,9.895,0,0,1-10.787-9.993V242.174a2.215,2.215,0,0,0-.713-1.7A2.17,2.17,0,0,0,281.139,239.908Zm54.23,37.958a16.935,16.935,0,0,1-16.976-16.983v-7.9a18.889,18.889,0,0,1,5.359-13.285,19.135,19.135,0,0,1,12.918-6.3l.287-.022a16.583,16.583,0,0,1,13.136,4.543,16.783,16.783,0,0,1,3.96,5.714,16.255,16.255,0,0,1,1.07,3.708,15.967,15.967,0,0,1,.3,3.1,9.74,9.74,0,0,1-8.871,9.528l-17.834,1.357a6.978,6.978,0,0,0,2.264,4.322,7.14,7.14,0,0,0,5.687,1.923l.287-.022a8.435,8.435,0,0,0,6.637-3.91,4.9,4.9,0,0,1,5.717-2.143,4.521,4.521,0,0,1,3.3,3.134,5.149,5.149,0,0,1-.745,4.618,18.984,18.984,0,0,1-14.72,8.546l-.287.022C336.357,277.847,335.858,277.866,335.369,277.866Zm3.118-41.984q-.658,0-1.34.049l-.287.022a16.427,16.427,0,0,0-11.23,5.5,16.189,16.189,0,0,0-4.666,11.529v7.887a14.383,14.383,0,0,0,15.707,14.38l.287-.02a16.316,16.316,0,0,0,12.8-7.453,2.557,2.557,0,0,0,.4-2.377,1.973,1.973,0,0,0-1.518-1.422,2.383,2.383,0,0,0-2.933,1.119,11,11,0,0,1-8.563,5.015l-.287.022a9.895,9.895,0,0,1-10.785-9.994,1.284,1.284,0,0,1,1.187-1.281l19.1-1.454a6.589,6.589,0,0,0,5.59-3.65,6.454,6.454,0,0,0,.9-3.314,13.521,13.521,0,0,0-.258-2.644,13.7,13.7,0,0,0-.91-3.167,14.178,14.178,0,0,0-3.357-4.846A13.756,13.756,0,0,0,338.487,235.882Zm-11.128,17.857a1.285,1.285,0,0,1-1.285-1.285v-.04a11.563,11.563,0,0,1,10.6-11.34l.287-.022a9.785,9.785,0,0,1,7.574,2.593,10.013,10.013,0,0,1,3.172,7.386,1.288,1.288,0,0,1-1.191,1.3l-19.06,1.406C327.422,253.738,327.389,253.739,327.359,253.739Zm10.449-10.149c-.218,0-.437.007-.661.025l-.287.022a9.084,9.084,0,0,0-8.115,7.427l16.3-1.2a7.281,7.281,0,0,0-2.266-4.335A7.1,7.1,0,0,0,337.808,243.59Zm37.731,31.357c-.116,0-.244-.006-.381-.016a1.042,1.042,0,0,1-.439-.042,4.863,4.863,0,0,1-.569-.092h0c-.042-.009-.082-.02-.126-.033a.835.835,0,0,1-.1-.025,4.637,4.637,0,0,1-3.03-2.81l-12.9-32.941a5.116,5.116,0,0,1,.147-3.955,5.229,5.229,0,0,1,2.78-2.82,4.856,4.856,0,0,1,3.9-.162,4.54,4.54,0,0,1,2.758,2.745l8.084,20.621,8.113-22a5.458,5.458,0,0,1,2.618-2.975,4.916,4.916,0,0,1,3.9-.393,4.662,4.662,0,0,1,2.959,2.53,5.225,5.225,0,0,1,.14,3.918l-12.911,34.872a5.209,5.209,0,0,1-2.9,3.108c-.043.019-.085.036-.13.051-.022.01-.046.019-.069.029h0a5.13,5.13,0,0,1-.583.181,2.018,2.018,0,0,1-.576.124,1.972,1.972,0,0,1-.439.071C375.712,274.943,375.63,274.947,375.539,274.947Zm1.518-1.639h0Zm-1.759-.937c.173,0,.24.006.295,0s.218-.04.326-.056a1.254,1.254,0,0,1,.178-.052,1.71,1.71,0,0,0,.225-.058,1.309,1.309,0,0,1,.361-.143,2.635,2.635,0,0,0,1.382-1.562l12.907-34.862a2.667,2.667,0,0,0-.055-1.988,2.11,2.11,0,0,0-1.378-1.139l-.009,0a2.378,2.378,0,0,0-1.926.208,2.915,2.915,0,0,0-1.415,1.6l-9.278,25.155a1.293,1.293,0,0,1-1.2.84H375.7a1.288,1.288,0,0,1-1.2-.816l-9.326-23.792a1.977,1.977,0,0,0-1.262-1.253,2.331,2.331,0,0,0-1.929.1,2.7,2.7,0,0,0-1.484,1.493,2.568,2.568,0,0,0-.1,2.038l12.886,32.909a2.048,2.048,0,0,0,1.324,1.269c.048.01.094.023.14.038a2.632,2.632,0,0,0,.334.043A1.5,1.5,0,0,1,375.3,272.371Zm39.315-.351a16.935,16.935,0,0,1-16.987-16.986v-7.9a18.881,18.881,0,0,1,5.359-13.284,19.137,19.137,0,0,1,12.921-6.306l.282-.022a16.877,16.877,0,0,1,17.1,10.257,19.04,19.04,0,0,1,1.373,6.811,9.75,9.75,0,0,1-8.874,9.528l-17.834,1.356a6.989,6.989,0,0,0,2.264,4.323,7.162,7.162,0,0,0,5.689,1.923l.282-.022a8.447,8.447,0,0,0,6.643-3.912,4.88,4.88,0,0,1,5.72-2.14,4.52,4.52,0,0,1,3.3,3.134,5.138,5.138,0,0,1-.747,4.619,18.984,18.984,0,0,1-14.719,8.543l-.282.022C415.594,272,415.1,272.02,414.612,272.02Zm3.106-41.985c-.439,0-.884.017-1.34.051l-.282.022a16.424,16.424,0,0,0-11.234,5.5,16.181,16.181,0,0,0-4.667,11.528v7.886A14.388,14.388,0,0,0,415.9,269.4l.282-.022a16.319,16.319,0,0,0,12.8-7.451,2.551,2.551,0,0,0,.4-2.378,1.972,1.972,0,0,0-1.515-1.422,2.378,2.378,0,0,0-2.933,1.118,11,11,0,0,1-8.566,5.017l-.282.022a9.893,9.893,0,0,1-10.791-10,1.284,1.284,0,0,1,1.187-1.282l19.1-1.451a6.576,6.576,0,0,0,5.587-3.652,6.425,6.425,0,0,0,.908-3.313,16.419,16.419,0,0,0-1.168-5.809,14.185,14.185,0,0,0-3.359-4.846A13.769,13.769,0,0,0,417.719,230.035Zm-11.128,17.857a1.285,1.285,0,0,1-1.285-1.285v-.04a11.562,11.562,0,0,1,10.6-11.34l.282-.022a9.753,9.753,0,0,1,7.578,2.595,10,10,0,0,1,3.171,7.388,1.284,1.284,0,0,1-1.19,1.294l-19.061,1.408Zm10.448-10.149c-.217,0-.436.009-.66.025l-.282.022a9.083,9.083,0,0,0-8.121,7.427l16.3-1.2a7.275,7.275,0,0,0-2.264-4.335A7.116,7.116,0,0,0,417.038,237.744Z" transform="translate(-177.3 -147.441)" fill="#fff"/>
    </g>
  </g>
</svg>
