<svg xmlns="http://www.w3.org/2000/svg" width="125.534" height="39.541" viewBox="0 0 125.534 39.541">
  <g id="Grupo_3" data-name="Grupo 3" transform="translate(-144.969 -231.388)">
    <path id="Trazado_1" data-name="Trazado 1" d="M475.139,336.978c.985,0,1.971.012,2.956,0a4.114,4.114,0,0,1,3.115,1.289c.246.251.361.257.635.025a5.193,5.193,0,0,1,3.328-1.3c1.777-.027,3.555-.037,5.332,0a4.465,4.465,0,0,1,4.393,3.91,8.73,8.73,0,0,1-.351,2.628c-.864,4.543-1.76,9.08-2.627,13.622a4.864,4.864,0,0,1-4.708,3.863,3.037,3.037,0,0,1-2.967-3.589c.764-3.915,1.487-7.838,2.217-11.759.159-.851-.052-1.269-.659-1.422a1.367,1.367,0,0,0-1.667.975c-.219.917-.377,1.85-.554,2.777-.622,3.256-1.222,6.516-1.872,9.766a4.123,4.123,0,0,1-2.565,2.794,3.769,3.769,0,0,1-3.35.145,2.826,2.826,0,0,1-1.565-3.426q1.08-5.8,2.159-11.594c.165-.886-.036-1.306-.682-1.445a1.346,1.346,0,0,0-1.653,1.063c-.283,1.338-.535,2.684-.795,4.027-.5,2.592-.978,5.189-1.5,7.776a4.8,4.8,0,0,1-4.667,3.912,2.992,2.992,0,0,1-2.931-3.522c.74-4.193,1.528-8.377,2.3-12.564.213-1.156.448-2.308.645-3.466a5.334,5.334,0,0,1,5.256-4.483C473.284,336.974,474.211,336.979,475.139,336.978Z" transform="translate(-281.247 -93.334)" fill="#fff"/>
    <path id="Trazado_2" data-name="Trazado 2" d="M1002.56,336.312c1.317.059,3.1-.119,4.868.112a5.425,5.425,0,0,1,4.856,3.931,9.908,9.908,0,0,1-.1,4.025c-.751,4.094-1.5,8.188-2.29,12.276a4.457,4.457,0,0,1-7.135,2.829c-.172-.12-.3-.269-.551-.108a5.585,5.585,0,0,1-2.466.756,18.294,18.294,0,0,1-5.2.02c-3.838-.7-5.784-3.694-4.924-7.545a8.846,8.846,0,0,1,8.6-7.382c1.81-.13,3.615-.316,5.423-.479a4.064,4.064,0,0,0,.514-.084,1.121,1.121,0,0,0,.975-1.232c-.046-.516-.424-.852-1.118-.861-2.048-.029-4.1-.02-6.144-.028a10.954,10.954,0,0,1-1.677-.073,2.521,2.521,0,0,1-2.131-3.226,3.726,3.726,0,0,1,3.638-2.925C999.165,336.29,1000.634,336.312,1002.56,336.312Zm.427,13.342a12.712,12.712,0,0,0-4.371,1.04,4.148,4.148,0,0,0-1.6,1.21,1.329,1.329,0,0,0,.731,2.252,5.829,5.829,0,0,0,4.656-.73,2.125,2.125,0,0,0,.988-1.373c.135-.561.252-1.126.375-1.689C1003.933,349.613,1003.932,349.613,1002.987,349.654Z" transform="translate(-745.636 -92.747)" fill="#fff"/>
    <path id="Trazado_3" data-name="Trazado 3" d="M277.936,342.552c-1.784-.069-3.12.063-4.448-.087a2.539,2.539,0,0,1-2.256-3.46,3.708,3.708,0,0,1,3.52-2.7c2.955-.033,5.912-.034,8.867.014a6.685,6.685,0,0,1,3.725,1.1c2.017,1.373,2.43,3.38,2.134,5.618-.377,2.848-1,5.654-1.5,8.481-.308,1.746-.614,3.493-.98,5.228a4.451,4.451,0,0,1-7.062,2.753.632.632,0,0,0-.807-.037,5.634,5.634,0,0,1-2.262.657,17.1,17.1,0,0,1-5.706-.083c-3.484-.809-5.271-3.856-4.422-7.493a8.868,8.868,0,0,1,8.64-7.338c1.791-.125,3.577-.311,5.365-.474a3.759,3.759,0,0,0,.628-.1,1.109,1.109,0,0,0,.868-1.2c-.035-.51-.392-.849-1.044-.864C279.957,342.531,278.72,342.552,277.936,342.552Zm3.13,7.054a14.24,14.24,0,0,0-4.474.719,5.234,5.234,0,0,0-2.387,1.466,1.35,1.35,0,0,0,.658,2.344,5.742,5.742,0,0,0,4.756-.793,2.044,2.044,0,0,0,.892-1.307C280.7,351.25,280.871,350.463,281.066,349.606Z" transform="translate(-106.576 -92.729)" fill="#fff"/>
    <path id="Trazado_4" data-name="Trazado 4" d="M165.687,244a2.994,2.994,0,0,1-2.636,2.962c-.44.055-.885.075-1.327.112a2.222,2.222,0,0,0-2.021,1.405,10.623,10.623,0,0,0-.686,2.74.6.6,0,0,0,.623.732,7.818,7.818,0,0,1,1.205.139,2.529,2.529,0,0,1,1.779,3.4,3.842,3.842,0,0,1-3.536,2.7c-1.261.062-1.4.2-1.624,1.463-.8,4.438-1.6,8.876-2.426,13.308a3.886,3.886,0,0,1-3.982,3.177A3.829,3.829,0,0,1,147.4,272.6a9.766,9.766,0,0,1,.349-2.572c.646-3.7,1.325-7.4,1.99-11.1.1-.555-.025-.718-.579-.723a5.168,5.168,0,0,1-1.32-.136,2.449,2.449,0,0,1-1.795-2.99,3.869,3.869,0,0,1,3.912-3.126,1.286,1.286,0,0,0,1.474-1.158c.3-1.236.515-2.49.809-3.727a7.851,7.851,0,0,1,7.306-6.052c1.1-.048,2.2-.044,3.3-.017A2.964,2.964,0,0,1,165.687,244Z" transform="translate(-1 -7.48)" fill="#fff"/>
    <path id="Trazado_5" data-name="Trazado 5" d="M901.508,380.983a3.01,3.01,0,0,1-3.119-3.575c.515-3.019,1.113-6.024,1.678-9.035q.731-3.892,1.468-7.783c.039-.208.07-.419.125-.623.073-.269.185-.376.409-.093a4.615,4.615,0,0,0,6.594.359c.151-.124.283-.407.509-.266s.054.4.018.592q-1.355,7.215-2.723,14.429-.209,1.108-.419,2.215A4.85,4.85,0,0,1,901.508,380.983Z" transform="translate(-665.12 -113.438)" fill="#fff"/>
    <path id="Trazado_6" data-name="Trazado 6" d="M724.614,413.014c.221-1.191.488-2.65.762-4.107q.8-4.234,1.6-8.466c.032-.17.068-.341.112-.508.076-.285.178-.343.416-.1a4.576,4.576,0,0,0,6.452.447c.194-.15.363-.527.65-.339.22.145.038.476-.006.709q-1.134,6.023-2.293,12.041a4.734,4.734,0,0,1-5.139,3.685A3.06,3.06,0,0,1,724.614,413.014Z" transform="translate(-511.541 -148.777)" fill="#fff"/>
    <path id="Trazado_7" data-name="Trazado 7" d="M809.251,455.967a3.04,3.04,0,0,1-3.069-3.722c.664-3.621,1.35-7.237,2.028-10.855a4.228,4.228,0,0,1,.106-.45c.086-.281.2-.322.429-.091a4.569,4.569,0,0,0,6.49.441c.181-.142.345-.487.6-.321s.037.468-.007.7c-.655,3.5-1.306,7.01-1.99,10.508A4.823,4.823,0,0,1,809.251,455.967Z" transform="translate(-583.595 -185.038)" fill="#fff"/>
    <path id="Trazado_8" data-name="Trazado 8" d="M832.663,376.2c2.074-.2,4,2.015,3.155,4.661a5.007,5.007,0,0,1-5.031,3.466,3.136,3.136,0,0,1-2.936-3.136A4.841,4.841,0,0,1,832.663,376.2Z" transform="translate(-602.807 -128.007)" fill="#fbb901"/>
    <path id="Trazado_9" data-name="Trazado 9" d="M748.868,340.319a4.926,4.926,0,0,1,5.9-4.627,3.383,3.383,0,0,1,2.317,3.479,5.015,5.015,0,0,1-4.354,4.555A3.294,3.294,0,0,1,748.868,340.319Z" transform="translate(-532.982 -92.099)" fill="#97c121"/>
    <path id="Trazado_10" data-name="Trazado 10" d="M859.225,239.574a3.288,3.288,0,0,1,3.114,4.224,5.079,5.079,0,0,1-4.152,3.915,3.232,3.232,0,0,1-3.853-3.672A5.184,5.184,0,0,1,859.225,239.574Z" transform="translate(-626.199 -7.237)" fill="#00a0e3"/>
    <path id="Trazado_11" data-name="Trazado 11" d="M934.262,303.738c-2.484-.011-3.823-1.61-3.385-4.04a5.121,5.121,0,0,1,4.32-4.033,3.154,3.154,0,0,1,3.787,2.476,3.962,3.962,0,0,1-.261,2.434A5.044,5.044,0,0,1,934.262,303.738Z" transform="translate(-693.812 -56.775)" fill="#e6007e"/>
    <path id="Trazado_12" data-name="Trazado 12" d="M837.364,312.971c.183-1.01.358-2,.542-2.982q.456-2.444.923-4.885c.022-.113.064-.223.087-.336.074-.363.193-.44.465-.12a4.351,4.351,0,0,0,3.6,1.518,4.939,4.939,0,0,0,2.943-1.216c.156-.122.3-.381.532-.243.205.122.053.356.02.533q-.719,3.836-1.456,7.669c-.035.18,0,.444-.2.516-.229.082-.289-.2-.408-.325a4.646,4.646,0,0,0-6.315-.277c-.122.095-.235.2-.358.294-.087.065-.178.19-.295.094C837.388,313.161,837.387,313.042,837.364,312.971Z" transform="translate(-611.216 -64.586)" fill="#fff"/>
    <path id="Trazado_13" data-name="Trazado 13" d="M430.332,231.393a2.717,2.717,0,0,1,1.354.219c.252.129.733.176.536.648a.7.7,0,0,1-.97.458,3.26,3.26,0,0,0-2.267.03,3.681,3.681,0,0,0-1.816,4.767,2.276,2.276,0,0,0,2.127,1.154.573.573,0,0,0,.672-.589c.078-.726.25-1.443.375-2.164a1.152,1.152,0,0,1,.49-.82.867.867,0,0,1,.978-.084.74.74,0,0,1,.308.863c-.16.931-.316,1.862-.5,2.787a1.028,1.028,0,0,1-1.359.879,1.8,1.8,0,0,0-.571.03,6.566,6.566,0,0,1-2.359-.055,2.85,2.85,0,0,1-2.373-3.358A5.19,5.19,0,0,1,430.332,231.393Z" transform="translate(-246.606 0)" fill="#fff"/>
    <path id="Trazado_14" data-name="Trazado 14" d="M616.271,253.6a3.745,3.745,0,0,1-4.166,3.743c-.226-.018-.257.064-.287.235-.067.378-.145.755-.223,1.131a1.166,1.166,0,0,1-.609.925.805.805,0,0,1-.825-.009.68.68,0,0,1-.284-.762q.576-3.238,1.171-6.472a1,1,0,0,1,.75-.8.681.681,0,0,1,.844.316c.132.215.253.179.423.072a3.221,3.221,0,0,1,.41-.212A1.832,1.832,0,0,1,616.271,253.6Zm-3.763,2.8a1.63,1.63,0,0,0,1.6-1.013,2.228,2.228,0,0,0,.154-2.208c-.272-.471-.724-.437-1.18-.382s-.5.38-.561.745q-.176,1.142-.414,2.275C612.027,256.222,612.056,256.478,612.508,256.4Z" transform="translate(-410.094 -17.802)" fill="#fff"/>
    <path id="Trazado_15" data-name="Trazado 15" d="M552.791,255.652c.16-.867.376-2.041.6-3.214a.874.874,0,0,1,.357-.512.822.822,0,0,1,.913-.155.651.651,0,0,1,.363.774c-.143.933-.321,1.86-.462,2.793-.129.854.369,1.243,1.173.953a.664.664,0,0,0,.448-.6c.17-1.025.376-2.045.55-3.07a1.119,1.119,0,0,1,.589-.812.738.738,0,0,1,.823,0,.687.687,0,0,1,.286.759c-.253,1.4-.5,2.807-.758,4.209a1.04,1.04,0,0,1-.817.879.673.673,0,0,1-.865-.48c-.077-.214-.189-.114-.309-.062a7.386,7.386,0,0,1-.906.374C553.607,257.816,552.777,257.171,552.791,255.652Z" transform="translate(-359.644 -17.941)" fill="#fff"/>
    <path id="Trazado_16" data-name="Trazado 16" d="M678.648,257.391a2.1,2.1,0,0,1-2.229-2.609,3.557,3.557,0,0,1,3.659-3.29,1.99,1.99,0,0,1,2.106,2.015A3.544,3.544,0,0,1,678.648,257.391Zm-.476-2.533c0,.259,0,.355,0,.451.014.507.108,1,.685,1.127s.933-.271,1.151-.756a4.68,4.68,0,0,0,.4-2.191c-.025-.47-.136-.911-.656-1.032a.994.994,0,0,0-1.143.671A4.14,4.14,0,0,0,678.172,254.859Z" transform="translate(-468.906 -17.768)" fill="#fff"/>
    <path id="Trazado_17" data-name="Trazado 17" d="M503.311,252.432a2.612,2.612,0,0,1,1.388-.918.7.7,0,0,1,.742.2c.173.238.054.487-.076.7-.245.408-.435.83-1.1.6-.56-.193-1.006.167-1.181.889-.2.822-.32,1.663-.477,2.5a1.254,1.254,0,0,1-.411.864.848.848,0,0,1-.963.164.747.747,0,0,1-.339-.9c.2-1.156.414-2.311.626-3.466a4.477,4.477,0,0,1,.2-.9.927.927,0,0,1,1-.624C503.143,251.584,503.366,251.858,503.311,252.432Z" transform="translate(-313.741 -17.771)" fill="#fff"/>
    <path id="Trazado_18" data-name="Trazado 18" d="M1186.754,325.3a1.874,1.874,0,0,1-1.882-1.923,2.054,2.054,0,0,1,2.137-2.035,1.9,1.9,0,0,1,1.916,1.958A2.065,2.065,0,0,1,1186.754,325.3Zm1.86-2.051a1.673,1.673,0,0,0-1.658-1.654,1.766,1.766,0,0,0-1.767,1.766,1.64,1.64,0,0,0,1.679,1.683A1.794,1.794,0,0,0,1188.614,323.248Z" transform="translate(-918.424 -79.52)" fill="#fff"/>
    <path id="Trazado_19" data-name="Trazado 19" d="M1194.973,329.606a1.07,1.07,0,0,1,0-.231c.066-.292-.144-.723.139-.859a1.741,1.741,0,0,1,1.246.02.528.528,0,0,1,.239.847c-.243.238-.186.362-.005.555a.473.473,0,0,1,.079.386c-.01.119.056.289-.161.3s-.19-.138-.2-.271a1.014,1.014,0,0,0-.034-.228c-.108-.333-.382-.329-.661-.324-.327.006-.206.258-.237.422s.066.446-.24.421-.162-.292-.175-.462c-.015-.192,0-.385,0-.578Zm.695-.878c-.219-.065-.294.106-.275.393.014.2-.047.455.3.407.275-.039.62-.008.624-.422C1196.318,328.748,1196.026,328.765,1195.668,328.728Z" transform="translate(-927.327 -85.769)" fill="#fff"/>
  </g>
</svg>
